<?xml version="1.0" encoding="utf-8"?>
<svg xmlns="http://www.w3.org/2000/svg"
     id="suitcase_icon"
     viewBox="0 0 240 192"
     width="240" height="192">
  <title>suitcase icon</title>
  <style type="text/css">
    *         {stroke: none;}
    #suitcase {fill: black;}
    .body     {}
    .sides    {}
    #left     {}
    #middle   {}
    #right    {}
    #handle   {}
  </style>
  <g id="suitcase">
    <path id="left" class="body sides"
      d="m  40,32 0,160 -16,0
         a  24,24 0 0 1 -24,-24 l 0,-112
         a  24,24 0 0 1  24,-24 z" />
    <rect id="middle" class="body"
      x="48" y="32" width="144" height="160" />
    <path id="right" class="body sides"
      d="m 200,32 16,0
         a  24,24 0 0 1  24,24  l 0,112
         a  24,24 0 0 1 -24,24  l -16,0 z" />
    <path id="handle"
      d="m  84,30 0,-12
         a  18,18 0 0 1 18,-18 l 36,0
         a  18,18 0 0 1 18,18  l 0,12 -12,0 0,-12
         a   6,6  0 0 0 -6,-6  l -36,0
         a   6,6  0 0 0 -6,6   l 0,12 z" />
  </g>
</svg>